# xmcd CD database file
#
# Track frame offsets:
#	150
#	18405
#	35636
#	57510
#	76682
#	90716
#	110448
#	127594
#	141573
#	157608
#	174067
#	191625
#	207566
#	223031
#	241925
#	259490
#	277486
#	298434
#	317359
#	331093
#
# Disc length: 4638 seconds
#
# Revision: 1
# Processed by: cddbd v1.5.2PL0 Copyright (c) Steve Scherf et al.
# Submitted via: CDex 1.51
#
DISCID=27121c14
DTITLE=Various Artist - ZMPB-CD-6
DYEAR=1900
DGENRE=Blues
TTITLE0=Kings Of Leon - Use Somebody
TTITLE1=Amy Winehouse Ft Mark Ronson - Valerie
TTITLE2=Lana Del Rey - Video
TTITLE3=Coldplay - Viva La Vida
TTITLE4=The Spice Girls - Wannabe
TTITLE5=Fun FT Janelle Monae - We Are Young
TTITLE6=Rihanna Ft Calvin Harris - We Found Love
TTITLE7=Alex Gaudino Ft Kelly Rowland - What A Feeling
TTITLE8=One Direction - What Makes You Beautiful
TTITLE9=David Guetta Ft Kelly Rowland - When Love Takes Over
TTITLE10=Matt Cardle - When We Collide
TTITLE11=The Calling - Wherever You Will Go
TTITLE12=Selena Gomez and The Scene - Who Says
TTITLE13=Jessie J - Who's Laughing Now
TTITLE14=Katy Perry - Wide Awake
TTITLE15=Tinie Tempah - Written In The Stars
TTITLE16=Coldplay - Yellow
TTITLE17=Westlife - You Raise Me Up
TTITLE18=Florence and The Machine - You've Got The Love
TTITLE19=Tulisa - Young
EXTD=
EXTT0=
EXTT1=
EXTT2=
EXTT3=
EXTT4=
EXTT5=
EXTT6=
EXTT7=
EXTT8=
EXTT9=
EXTT10=
EXTT11=
EXTT12=
EXTT13=
EXTT14=
EXTT15=
EXTT16=
EXTT17=
EXTT18=
EXTT19=
PLAYORDER=
